<svg width="182" height="25" viewBox="0 0 182 25" fill="none" xmlns="http://www.w3.org/2000/svg">
<path d="M14.5714 4.42857V9.28571H9.71429V4.42857H14.5714ZM14.5714 11.7143V16.5714H9.71429V11.7143H14.5714ZM7.28571 9.28571H2.42857V4.42857H7.28571V9.28571ZM2.42857 11.7143H7.28571V16.5714H2.42857V11.7143ZM2.42857 2C1.08906 2 0 3.08906 0 4.42857V16.5714C0 17.9109 1.08906 19 2.42857 19H14.5714C15.9109 19 17 17.9109 17 16.5714V4.42857C17 3.08906 15.9109 2 14.5714 2H2.42857Z" fill="#4C9AFF"/>
<path d="M34.8015 19.2557C33.523 19.2557 32.4151 18.9744 31.4776 18.4119C30.5401 17.8494 29.8128 17.0625 29.2958 16.0511C28.7844 15.0398 28.5287 13.858 28.5287 12.5057C28.5287 11.1534 28.7844 9.96875 29.2958 8.9517C29.8128 7.93466 30.5401 7.14489 31.4776 6.58239C32.4151 6.01989 33.523 5.73864 34.8015 5.73864C36.0799 5.73864 37.1878 6.01989 38.1253 6.58239C39.0628 7.14489 39.7872 7.93466 40.2986 8.9517C40.8157 9.96875 41.0742 11.1534 41.0742 12.5057C41.0742 13.858 40.8157 15.0398 40.2986 16.0511C39.7872 17.0625 39.0628 17.8494 38.1253 18.4119C37.1878 18.9744 36.0799 19.2557 34.8015 19.2557ZM34.8185 16.7841C35.5117 16.7841 36.0912 16.5937 36.5571 16.2131C37.023 15.8267 37.3696 15.3097 37.5969 14.6619C37.8299 14.0142 37.9463 13.2926 37.9463 12.4972C37.9463 11.696 37.8299 10.9716 37.5969 10.3239C37.3696 9.67045 37.023 9.15057 36.5571 8.7642C36.0912 8.37784 35.5117 8.18466 34.8185 8.18466C34.1083 8.18466 33.5174 8.37784 33.0458 8.7642C32.5799 9.15057 32.2304 9.67045 31.9975 10.3239C31.7702 10.9716 31.6566 11.696 31.6566 12.4972C31.6566 13.2926 31.7702 14.0142 31.9975 14.6619C32.2304 15.3097 32.5799 15.8267 33.0458 16.2131C33.5174 16.5937 34.1083 16.7841 34.8185 16.7841ZM43.6928 19V5.90909H46.6843V8.09091H46.8206C47.0593 7.33523 47.4684 6.75284 48.0479 6.34375C48.6331 5.92898 49.3007 5.72159 50.0507 5.72159C50.2212 5.72159 50.4115 5.73011 50.6218 5.74716C50.8377 5.75852 51.0167 5.77841 51.1587 5.80682V8.64489C51.028 8.59943 50.8206 8.55966 50.5365 8.52557C50.2581 8.4858 49.9882 8.46591 49.7269 8.46591C49.1644 8.46591 48.6587 8.58807 48.2098 8.83239C47.7667 9.07102 47.4172 9.40341 47.1615 9.82955C46.9059 10.2557 46.778 10.7472 46.778 11.304V19H43.6928ZM58.3625 24.1818C57.2546 24.1818 56.3029 24.0313 55.5074 23.7301C54.712 23.4347 54.0728 23.0369 53.5898 22.5369C53.1068 22.0369 52.7716 21.483 52.5841 20.875L55.3625 20.2017C55.4875 20.4574 55.6693 20.7102 55.908 20.9602C56.1466 21.2159 56.4676 21.4261 56.8711 21.5909C57.2801 21.7614 57.7943 21.8466 58.4137 21.8466C59.2887 21.8466 60.0131 21.6335 60.587 21.2074C61.1608 20.7869 61.4478 20.0938 61.4478 19.1278V16.6477H61.2943C61.1353 16.9659 60.9023 17.2926 60.5955 17.6278C60.2943 17.9631 59.8938 18.2443 59.3938 18.4716C58.8995 18.6989 58.2773 18.8125 57.5273 18.8125C56.5216 18.8125 55.6097 18.5767 54.7915 18.1051C53.979 17.6278 53.3313 16.9176 52.8483 15.9744C52.3711 15.0256 52.1324 13.8381 52.1324 12.4119C52.1324 10.9744 52.3711 9.76136 52.8483 8.77273C53.3313 7.77841 53.9818 7.02557 54.8 6.5142C55.6182 5.99716 56.5301 5.73864 57.5358 5.73864C58.3029 5.73864 58.9336 5.86932 59.4279 6.13068C59.9279 6.38636 60.3256 6.69602 60.6211 7.05966C60.9165 7.41761 61.1409 7.75568 61.2943 8.07386H61.4648V5.90909H64.5074V19.2131C64.5074 20.3324 64.2404 21.2585 63.7063 21.9915C63.1722 22.7244 62.4421 23.2727 61.5159 23.6364C60.5898 24 59.5387 24.1818 58.3625 24.1818ZM58.3881 16.392C59.0415 16.392 59.5983 16.233 60.0586 15.9148C60.5188 15.5966 60.8682 15.1392 61.1068 14.5426C61.3455 13.946 61.4648 13.2301 61.4648 12.3949C61.4648 11.571 61.3455 10.8494 61.1068 10.2301C60.8739 9.6108 60.5273 9.13068 60.0671 8.78977C59.6125 8.44318 59.0529 8.26989 58.3881 8.26989C57.7006 8.26989 57.1267 8.44886 56.6665 8.80682C56.2063 9.16477 55.8597 9.65625 55.6267 10.2812C55.3938 10.9006 55.2773 11.6051 55.2773 12.3949C55.2773 13.196 55.3938 13.8977 55.6267 14.5C55.8654 15.0966 56.2148 15.5625 56.675 15.8977C57.1409 16.2273 57.712 16.392 58.3881 16.392ZM71.4364 19.2642C70.6068 19.2642 69.8597 19.1165 69.1949 18.821C68.5358 18.5199 68.0131 18.0767 67.6267 17.4915C67.2461 16.9062 67.0557 16.1847 67.0557 15.3267C67.0557 14.5881 67.1921 13.9773 67.4648 13.4943C67.7375 13.0114 68.1097 12.625 68.5813 12.3352C69.0529 12.0455 69.5841 11.8267 70.175 11.679C70.7716 11.5256 71.3881 11.4148 72.0245 11.3466C72.7915 11.267 73.4137 11.196 73.8909 11.1335C74.3682 11.0653 74.7148 10.9631 74.9307 10.8267C75.1523 10.6847 75.2631 10.4659 75.2631 10.1705V10.1193C75.2631 9.47727 75.0728 8.98011 74.6921 8.62784C74.3114 8.27557 73.7631 8.09943 73.0472 8.09943C72.2915 8.09943 71.6921 8.2642 71.2489 8.59375C70.8114 8.9233 70.5159 9.3125 70.3625 9.76136L67.4818 9.35227C67.7091 8.55682 68.0841 7.89205 68.6068 7.35795C69.1296 6.81818 69.7688 6.41477 70.5245 6.14773C71.2801 5.875 72.1154 5.73864 73.0301 5.73864C73.6608 5.73864 74.2887 5.8125 74.9137 5.96023C75.5387 6.10795 76.1097 6.35227 76.6267 6.69318C77.1438 7.02841 77.5586 7.4858 77.8711 8.06534C78.1892 8.64489 78.3483 9.36932 78.3483 10.2386V19H75.3824V17.2017H75.2801C75.0926 17.5653 74.8284 17.9062 74.4875 18.2244C74.1523 18.5369 73.729 18.7898 73.2176 18.983C72.712 19.1705 72.1182 19.2642 71.4364 19.2642ZM72.2375 16.9972C72.8568 16.9972 73.3938 16.875 73.8483 16.6307C74.3029 16.3807 74.6523 16.0511 74.8966 15.642C75.1466 15.233 75.2716 14.7869 75.2716 14.304V12.7614C75.175 12.8409 75.0103 12.9148 74.7773 12.983C74.55 13.0511 74.2943 13.1108 74.0103 13.1619C73.7262 13.2131 73.4449 13.2585 73.1665 13.2983C72.8881 13.3381 72.6466 13.3722 72.4421 13.4006C71.9818 13.4631 71.5699 13.5653 71.2063 13.7074C70.8426 13.8494 70.5557 14.0483 70.3455 14.304C70.1353 14.554 70.0301 14.8778 70.0301 15.2756C70.0301 15.8438 70.2375 16.2727 70.6523 16.5625C71.0671 16.8523 71.5955 16.9972 72.2375 16.9972ZM84.5358 11.3295V19H81.4506V5.90909H84.3995V8.13352H84.5529C84.854 7.40057 85.3341 6.81818 85.9932 6.38636C86.658 5.95455 87.479 5.73864 88.4563 5.73864C89.3597 5.73864 90.1466 5.93182 90.8171 6.31818C91.4932 6.70455 92.0159 7.2642 92.3853 7.99716C92.7603 8.73011 92.9449 9.61932 92.9392 10.6648V19H89.854V11.142C89.854 10.267 89.6267 9.58239 89.1722 9.08807C88.7233 8.59375 88.1012 8.34659 87.3057 8.34659C86.7659 8.34659 86.2858 8.46591 85.8654 8.70455C85.4506 8.9375 85.1239 9.27557 84.8853 9.71875C84.6523 10.1619 84.5358 10.6989 84.5358 11.3295ZM96.0756 19V5.90909H99.1608V19H96.0756ZM97.6267 4.05114C97.1381 4.05114 96.7176 3.8892 96.3654 3.56534C96.0131 3.23579 95.837 2.84091 95.837 2.38068C95.837 1.91477 96.0131 1.51989 96.3654 1.19602C96.7176 0.866477 97.1381 0.701704 97.6267 0.701704C98.1211 0.701704 98.5415 0.866477 98.8881 1.19602C99.2404 1.51989 99.4165 1.91477 99.4165 2.38068C99.4165 2.84091 99.2404 3.23579 98.8881 3.56534C98.5415 3.8892 98.1211 4.05114 97.6267 4.05114ZM102.163 19V17.0398L108.913 8.5767V8.46591H102.385V5.90909H112.689V8.0142L106.262 16.3324V16.4432H112.91V19H102.163ZM119.577 19.2642C118.747 19.2642 118 19.1165 117.336 18.821C116.676 18.5199 116.154 18.0767 115.767 17.4915C115.387 16.9062 115.196 16.1847 115.196 15.3267C115.196 14.5881 115.333 13.9773 115.605 13.4943C115.878 13.0114 116.25 12.625 116.722 12.3352C117.193 12.0455 117.725 11.8267 118.316 11.679C118.912 11.5256 119.529 11.4148 120.165 11.3466C120.932 11.267 121.554 11.196 122.032 11.1335C122.509 11.0653 122.855 10.9631 123.071 10.8267C123.293 10.6847 123.404 10.4659 123.404 10.1705V10.1193C123.404 9.47727 123.213 8.98011 122.833 8.62784C122.452 8.27557 121.904 8.09943 121.188 8.09943C120.432 8.09943 119.833 8.2642 119.39 8.59375C118.952 8.9233 118.657 9.3125 118.503 9.76136L115.622 9.35227C115.85 8.55682 116.225 7.89205 116.747 7.35795C117.27 6.81818 117.909 6.41477 118.665 6.14773C119.421 5.875 120.256 5.73864 121.171 5.73864C121.801 5.73864 122.429 5.8125 123.054 5.96023C123.679 6.10795 124.25 6.35227 124.767 6.69318C125.284 7.02841 125.699 7.4858 126.012 8.06534C126.33 8.64489 126.489 9.36932 126.489 10.2386V19H123.523V17.2017H123.421C123.233 17.5653 122.969 17.9062 122.628 18.2244C122.293 18.5369 121.87 18.7898 121.358 18.983C120.853 19.1705 120.259 19.2642 119.577 19.2642ZM120.378 16.9972C120.997 16.9972 121.534 16.875 121.989 16.6307C122.443 16.3807 122.793 16.0511 123.037 15.642C123.287 15.233 123.412 14.7869 123.412 14.304V12.7614C123.316 12.8409 123.151 12.9148 122.918 12.983C122.691 13.0511 122.435 13.1108 122.151 13.1619C121.867 13.2131 121.586 13.2585 121.307 13.2983C121.029 13.3381 120.787 13.3722 120.583 13.4006C120.122 13.4631 119.711 13.5653 119.347 13.7074C118.983 13.8494 118.696 14.0483 118.486 14.304C118.276 14.554 118.171 14.8778 118.171 15.2756C118.171 15.8438 118.378 16.2727 118.793 16.5625C119.208 16.8523 119.736 16.9972 120.378 16.9972Z" fill="white"/>
<path d="M134.449 19.2301C133.421 19.2301 132.5 18.9659 131.688 18.4375C130.875 17.9091 130.233 17.142 129.762 16.1364C129.29 15.1307 129.054 13.9091 129.054 12.4716C129.054 11.017 129.293 9.78977 129.77 8.78977C130.253 7.78409 130.904 7.02557 131.722 6.5142C132.54 5.99716 133.452 5.73864 134.458 5.73864C135.225 5.73864 135.855 5.86932 136.35 6.13068C136.844 6.38636 137.236 6.69602 137.526 7.05966C137.816 7.41761 138.04 7.75568 138.199 8.07386H138.327V1.54545H141.421V19H138.387V16.9375H138.199C138.04 17.2557 137.81 17.5937 137.509 17.9517C137.208 18.304 136.81 18.6051 136.316 18.8551C135.821 19.1051 135.199 19.2301 134.449 19.2301ZM135.31 16.6989C135.963 16.6989 136.52 16.5227 136.98 16.1705C137.441 15.8125 137.79 15.3153 138.029 14.679C138.267 14.0426 138.387 13.3011 138.387 12.4545C138.387 11.608 138.267 10.8722 138.029 10.2472C137.796 9.62216 137.449 9.13636 136.989 8.78977C136.534 8.44318 135.975 8.26989 135.31 8.26989C134.622 8.26989 134.049 8.44886 133.588 8.80682C133.128 9.16477 132.782 9.65909 132.549 10.2898C132.316 10.9205 132.199 11.642 132.199 12.4545C132.199 13.2727 132.316 14.0028 132.549 14.6449C132.787 15.2812 133.137 15.7841 133.597 16.1534C134.063 16.517 134.634 16.6989 135.31 16.6989ZM150.504 19.2557C149.191 19.2557 148.058 18.983 147.103 18.4375C146.154 17.8864 145.424 17.108 144.913 16.1023C144.402 15.0909 144.146 13.9006 144.146 12.5312C144.146 11.1847 144.402 10.0028 144.913 8.9858C145.43 7.96307 146.152 7.16761 147.078 6.59943C148.004 6.02557 149.092 5.73864 150.342 5.73864C151.149 5.73864 151.91 5.86932 152.626 6.13068C153.348 6.38636 153.984 6.78409 154.535 7.32386C155.092 7.86364 155.529 8.55114 155.848 9.38636C156.166 10.2159 156.325 11.2045 156.325 12.3523V13.2983H145.595V11.2188H153.368C153.362 10.6278 153.234 10.1023 152.984 9.64205C152.734 9.17614 152.385 8.80966 151.936 8.54261C151.493 8.27557 150.975 8.14205 150.385 8.14205C149.754 8.14205 149.2 8.29545 148.723 8.60227C148.245 8.90341 147.873 9.30114 147.606 9.79545C147.345 10.2841 147.211 10.821 147.206 11.4062V13.2216C147.206 13.983 147.345 14.6364 147.623 15.1818C147.902 15.7216 148.291 16.1364 148.791 16.4261C149.291 16.7102 149.876 16.8523 150.546 16.8523C150.995 16.8523 151.402 16.7898 151.765 16.6648C152.129 16.5341 152.444 16.3438 152.711 16.0938C152.978 15.8438 153.18 15.5341 153.316 15.1648L156.197 15.4886C156.015 16.25 155.669 16.9148 155.157 17.483C154.652 18.0455 154.004 18.483 153.214 18.7955C152.424 19.1023 151.521 19.2557 150.504 19.2557ZM158.935 19V5.90909H161.926V8.09091H162.063C162.301 7.33523 162.711 6.75284 163.29 6.34375C163.875 5.92898 164.543 5.72159 165.293 5.72159C165.463 5.72159 165.654 5.73011 165.864 5.74716C166.08 5.75852 166.259 5.77841 166.401 5.80682V8.64489C166.27 8.59943 166.063 8.55966 165.779 8.52557C165.5 8.4858 165.23 8.46591 164.969 8.46591C164.407 8.46591 163.901 8.58807 163.452 8.83239C163.009 9.07102 162.659 9.40341 162.404 9.82955C162.148 10.2557 162.02 10.7472 162.02 11.304V19H158.935ZM173.622 19.2557C172.343 19.2557 171.235 18.9744 170.298 18.4119C169.36 17.8494 168.633 17.0625 168.116 16.0511C167.605 15.0398 167.349 13.858 167.349 12.5057C167.349 11.1534 167.605 9.96875 168.116 8.9517C168.633 7.93466 169.36 7.14489 170.298 6.58239C171.235 6.01989 172.343 5.73864 173.622 5.73864C174.9 5.73864 176.008 6.01989 176.946 6.58239C177.883 7.14489 178.608 7.93466 179.119 8.9517C179.636 9.96875 179.894 11.1534 179.894 12.5057C179.894 13.858 179.636 15.0398 179.119 16.0511C178.608 17.0625 177.883 17.8494 176.946 18.4119C176.008 18.9744 174.9 19.2557 173.622 19.2557ZM173.639 16.7841C174.332 16.7841 174.912 16.5937 175.377 16.2131C175.843 15.8267 176.19 15.3097 176.417 14.6619C176.65 14.0142 176.767 13.2926 176.767 12.4972C176.767 11.696 176.65 10.9716 176.417 10.3239C176.19 9.67045 175.843 9.15057 175.377 8.7642C174.912 8.37784 174.332 8.18466 173.639 8.18466C172.929 8.18466 172.338 8.37784 171.866 8.7642C171.4 9.15057 171.051 9.67045 170.818 10.3239C170.591 10.9716 170.477 11.696 170.477 12.4972C170.477 13.2926 170.591 14.0142 170.818 14.6619C171.051 15.3097 171.4 15.8267 171.866 16.2131C172.338 16.5937 172.929 16.7841 173.639 16.7841Z" fill="white" fill-opacity="0.5"/>
</svg>
